<svg width="120" height="120" viewBox="0 0 120 120" fill="none" xmlns="http://www.w3.org/2000/svg">
<rect width="120" height="120" rx="29.5" fill="url(#paint0_linear_802_970)"/>
<g clip-path="url(#clip0_802_970)">
<path d="M51.8635 34.8137C46.1711 32.096 38.2148 30.7646 27.5627 30.7174C26.5581 30.7037 25.5732 30.9967 24.7393 31.5571C24.0549 32.0197 23.4947 32.6435 23.1078 33.3734C22.721 34.1034 22.5195 34.9172 22.521 35.7433V80.8189C22.521 83.866 24.6889 86.1647 27.5627 86.1647C38.7599 86.1647 49.9918 87.2108 56.7193 93.5696C56.8113 93.657 56.927 93.7154 57.0519 93.7376C57.1769 93.7598 57.3056 93.7448 57.4221 93.6944C57.5386 93.6441 57.6377 93.5606 57.7071 93.4544C57.7766 93.3482 57.8133 93.2239 57.8127 93.097V39.9846C57.8128 39.6263 57.7361 39.2721 57.5877 38.9459C57.4393 38.6198 57.2227 38.3292 56.9524 38.094C55.4114 36.7766 53.6997 35.6732 51.8635 34.8137ZM95.9277 31.5524C95.0934 30.9933 94.1085 30.702 93.1043 30.7174C82.4522 30.7646 74.4959 32.0897 68.8035 34.8137C66.9674 35.6716 65.2552 36.7728 63.713 38.0877C63.4433 38.3233 63.2271 38.6139 63.079 38.94C62.9309 39.2661 62.8543 39.6201 62.8543 39.9783V93.0938C62.8543 93.2158 62.8902 93.335 62.9576 93.4366C63.0251 93.5382 63.121 93.6177 63.2334 93.6649C63.3458 93.7122 63.4697 93.7253 63.5895 93.7024C63.7093 93.6796 63.8197 93.6219 63.9068 93.5365C67.9511 89.519 75.0489 86.16 93.1106 86.1615C94.4478 86.1615 95.7301 85.6304 96.6756 84.6849C97.6211 83.7394 98.1523 82.457 98.1523 81.1199V35.7449C98.1542 34.9171 97.9522 34.1017 97.5642 33.3705C97.1762 32.6393 96.6142 32.0149 95.9277 31.5524Z" fill="white"/>
</g>
<defs>
<linearGradient id="paint0_linear_802_970" x1="-11" y1="81" x2="119.738" y2="27.3607" gradientUnits="userSpaceOnUse">
<stop stop-color="#1C69B2"/>
<stop offset="0.677451" stop-color="#611EE8"/>
</linearGradient>
<clipPath id="clip0_802_970">
<rect width="80.6667" height="66.6377" fill="white" transform="translate(20 30.1694)"/>
</clipPath>
</defs>
</svg>
